<svg xmlns="http://www.w3.org/2000/svg" viewBox="0 0 800 600" role="img" aria-label="A retail shelf with tagged products and a printed receipt, representing resale deterrence">
  <rect width="800" height="600" fill="#f1efeb"/>
  <!-- shelf board -->
  <rect x="120" y="404" width="430" height="20" rx="3" fill="#232323"/>
  <path d="M150 424 l14 34 M520 424 l-14 34" stroke="#232323" stroke-width="6" stroke-linecap="round"/>
  <ellipse cx="335" cy="470" rx="210" ry="18" fill="#232323" opacity="0.05"/>
  <!-- product boxes on shelf -->
  <g stroke="#232323" stroke-width="3" stroke-linejoin="round">
    <rect x="170" y="300" width="104" height="104" fill="#ffffff"/>
    <rect x="288" y="262" width="92" height="142" fill="#eee9dd"/>
    <rect x="394" y="330" width="118" height="74" fill="#ffffff"/>
  </g>
  <!-- box detail lines -->
  <g stroke="#232323" stroke-width="2" opacity="0.35">
    <path d="M170 332 H274 M308 296 H360"/>
  </g>
  <!-- hang tags -->
  <g stroke="#232323" stroke-width="2.5" stroke-linejoin="round">
    <path d="M222 300 v-30" stroke-width="2"/>
    <path d="M210 240 h24 l12 14 -12 14 h-24 z" fill="#f2a91c"/>
    <circle cx="218" cy="254" r="3.5" fill="#f1efeb"/>
    <path d="M453 330 v-22" stroke-width="2"/>
    <path d="M441 286 h24 l12 14 -12 14 h-24 z" fill="#ffffff"/>
    <circle cx="449" cy="300" r="3.5" fill="#232323"/>
  </g>
  <!-- receipt -->
  <g transform="rotate(6 612 330)">
    <path d="M560 196 h104 v250 l-13 -10 -13 10 -13 -10 -13 10 -13 -10 -13 10 -13 -10 -13 10 z"
          fill="#ffffff" stroke="#232323" stroke-width="3" stroke-linejoin="round"/>
    <g stroke="#232323" stroke-width="2.5" opacity="0.6" stroke-linecap="round">
      <path d="M578 228 H646 M578 252 H646 M578 276 H630"/>
    </g>
    <path d="M578 306 H646" stroke="#f2a91c" stroke-width="3" stroke-linecap="round"/>
    <g stroke="#232323" stroke-width="3" opacity="0.85" stroke-linecap="round">
      <path d="M578 352 H612 M578 352 H584 M592 352 h4 M602 352 h2 M610 352 h2 M620 352 h6 M632 352 h2 M640 352 h6"/>
    </g>
  </g>
</svg>
